<?xml version="1.0" standalone="no"?>
<!DOCTYPE svg PUBLIC "-//W3C//DTD SVG 20010904//EN"
 "http://www.w3.org/TR/2001/REC-SVG-20010904/DTD/svg10.dtd">
<svg version="1.0" xmlns="http://www.w3.org/2000/svg"
 width="96.000000pt" height="96.000000pt" viewBox="0 0 96.000000 96.000000"
 preserveAspectRatio="xMidYMid meet">
<metadata>
Created by potrace 1.14, written by Peter Selinger 2001-2017
</metadata>
<g transform="translate(0.000000,96.000000) scale(0.100000,-0.100000)"
fill="#000000" stroke="none">
<path d="M126 837 c-11 -85 12 -166 62 -219 l25 -27 -56 -66 -57 -66 26 -38
c24 -37 27 -38 70 -33 62 7 125 -20 169 -71 19 -22 35 -51 35 -64 0 -34 43
-73 80 -73 37 0 80 39 80 73 0 13 16 42 35 64 44 51 107 78 169 71 43 -5 46
-4 70 33 l26 38 -56 65 -55 65 20 20 c45 45 65 102 65 188 0 45 -3 85 -7 89
-13 13 -114 -16 -161 -46 -25 -16 -58 -46 -73 -67 l-27 -38 -87 0 -87 0 -21
33 c-29 44 -94 89 -154 107 -80 24 -84 22 -91 -38z m120 -46 c21 -15 49 -39
62 -53 l22 -24 -39 -42 c-42 -47 -48 -45 -75 19 -18 44 -30 129 -18 129 5 0
27 -13 48 -29z m518 -18 c-7 -51 -27 -108 -46 -130 -9 -11 -18 -5 -49 29 l-39
42 22 24 c28 30 98 82 110 82 5 0 6 -21 2 -47z"/>
</g>
</svg>
